<?xml version="1.0" encoding="utf-8"?>
<!-- Generator: Adobe Illustrator 19.2.1, SVG Export Plug-In . SVG Version: 6.00 Build 0)  -->
<svg version="1.1" id="layer" xmlns="http://www.w3.org/2000/svg" xmlns:xlink="http://www.w3.org/1999/xlink" x="0px" y="0px"
	 viewBox="0 0 652 652" style="enable-background:new 0 0 652 652;" xml:space="preserve">
<style type="text/css">
	.st0{fill:#FFEA00;}
	.st1{fill-rule:evenodd;clip-rule:evenodd;fill:#AACC03;}
	.st2{fill:#009953;}
	.st3{fill:#3E3A39;}
</style>
<rect x="20.5" y="285.9" class="st0" width="108.1" height="108.1"/>
<polygon class="st1" points="20.5,285.9 128.6,249.8 164.7,357.9 56.6,394 "/>
<rect x="56.6" y="249.8" class="st2" width="108.1" height="108.1"/>
<g>
	<path class="st3" d="M244.8,318.7v-0.4c7-1.2,11.8-7.4,11.4-14.4c0-9.8-6.8-18-21.4-18h-34.2v72.1h30.8c12.9,0,27.9-2.5,27.9-21.6
		C259.5,327.5,253.5,320,244.8,318.7 M429.4,285.9l-9.2,53.8h-0.5l-10.3-53.6h-13.9l-10.6,53.6h-0.5l-9.7-53.8h-14l14.8,72.1h16.1
		l10.3-48.8h0.5l10.3,48.8h16l14.8-72.1H429.4z M214.7,297h15.9c7.2,0,11.1,3,11.1,8.7c0,3.4-1.5,8.9-11.1,8.9h-15.9V297z
		 M288.4,303.8c-13.4,0-21.6,6.2-21.6,17.2h12.8c0-5,2.2-7.3,9.1-7.3c6.5,0,9.1,1.9,9.1,6.2v3.4c-4.6,0.7-15.6,2.8-18.3,3.3
		c-7.3,1.3-15.7,5.5-15.7,16.1c0,9,7.5,16.3,16.5,16.3c7.1,0,11.6-1.3,16.9-5.5h0.5l0.6,4.3h12.2v-37.1
		C310.6,308.4,303,303.8,288.4,303.8 M464.8,303.8c-13.4,0-21.6,6.2-21.6,17.2H456c0-5,2.2-7.3,9.1-7.3c6.5,0,9.1,1.9,9.1,6.2v3.4
		c-4.6,0.7-15.6,2.8-18.3,3.3c-7.3,1.3-15.7,5.5-15.7,16.1c0,9,7.5,16.3,16.5,16.3c7.1,0,11.6-1.3,16.9-5.5h0.5l0.6,4.3h12.2v-37.1
		C487.1,308.4,479.5,303.8,464.8,303.8 M545.1,316v-12.2c-8.8,0-13.8,2.1-17.5,7.3h-0.5l-0.7-5.1h-12.2v51.9h12.8v-26.6
		C527.1,319.2,532.5,314.4,545.1,316 M577.9,303.8c-16.6,0-24.3,8.4-24.3,26.9c0,19.4,7.7,28.3,24.3,28.3c13.1,0,20.4-4.5,23.3-14.2
		l-12.7-3.1c-1.6,4.8-4.6,6.8-10.6,6.8c-7.6,0-11-3.9-11.5-13.6H602c0,0,0.1-2,0.1-4.4C602.1,312.2,594.6,303.8,577.9,303.8
		 M337.6,342h-0.5l-11-36h-13.5l18.6,53.2c-0.8,6.2-3.5,7.6-13.1,5.3v9.7c3,0.9,5.9,1.6,9,1.6c8.9,0,13.5-3.8,16.2-13.2
		c3.2-11.1,16.9-56.5,16.9-56.5H347L337.6,342z M566.5,325.5c0.5-8.3,3.9-11.7,11.4-11.7c8.2,0,11.4,3.2,11.4,11.7H566.5z
		 M232.1,345.7h-17.3v-20.6h17.1c8.8,0,13.1,3.4,13.1,10.8C244.9,342.6,240.9,345.7,232.1,345.7 M297.8,344.5
		c-3.9,2.3-8.3,3.7-12.9,4c-4.4,0-7.7-2.6-7.7-6.2c0-4.7,4-5.7,8.3-6.6c3.3-0.7,12.2-2.5,12.2-2.5V344.5z M474.3,344.5
		c-3.9,2.3-8.3,3.7-12.9,4c-4.4,0-7.7-2.6-7.7-6.2c0-4.7,4-5.7,8.3-6.6c3.3-0.7,12.3-2.5,12.3-2.5V344.5z M607.8,357.9h12.8v-13.3
		h-12.8V357.9z M536,357.9h12.8v-13.1H536V357.9z"/>
</g>
</svg>
